<svg width="18" height="22" viewBox="0 0 18 22" fill="none" xmlns="http://www.w3.org/2000/svg">
<path d="M17.9391 16.1005L15.9828 21.3542C15.9238 21.5148 15.8235 21.6522 15.6947 21.7489C15.5658 21.8455 15.4141 21.8971 15.259 21.8971C15.1038 21.8971 14.9521 21.8455 14.8233 21.7489C14.6944 21.6522 14.5941 21.5148 14.5351 21.3542L12.5789 16.1005C12.539 15.9941 12.5183 15.88 12.5179 15.7647C12.5175 15.6494 12.5374 15.5351 12.5764 15.4284C12.6155 15.3217 12.673 15.2246 12.7455 15.1427C12.8181 15.0609 12.9044 14.9958 12.9995 14.9512C13.0945 14.9067 13.1965 14.8835 13.2995 14.8831C13.4026 14.8826 13.5047 14.9048 13.6001 14.9486C13.6955 14.9923 13.7822 15.0566 13.8554 15.1378C13.9285 15.219 13.9867 15.3155 14.0265 15.4219L15.259 18.7383L16.4914 15.4219C16.5312 15.3155 16.5894 15.219 16.6625 15.1378C16.7357 15.0566 16.8225 14.9923 16.9178 14.9486C17.0132 14.9048 17.1153 14.8826 17.2184 14.8831C17.3214 14.8835 17.4234 14.9067 17.5185 14.9512C17.6135 14.9958 17.6998 15.0609 17.7724 15.1427C17.8449 15.2246 17.9024 15.3217 17.9415 15.4284C17.9805 15.5351 18.0004 15.6494 18 15.7647C17.9996 15.88 17.9789 15.9941 17.9391 16.1005V16.1005ZM2.93441 16.6368C3.24628 16.6403 3.54595 16.7728 3.77561 17.009C3.85142 17.0872 3.94048 17.1478 4.03752 17.1869C4.13456 17.2261 4.23762 17.2431 4.34064 17.237C4.44365 17.2309 4.54453 17.2017 4.63732 17.1513C4.73011 17.1008 4.81293 17.0301 4.88091 16.9433C5.02095 16.772 5.09447 16.5455 5.08529 16.3135C5.07612 16.0816 4.98502 15.8633 4.832 15.7065C4.31047 15.1824 3.63537 14.8903 2.93441 14.8856C1.32049 14.8856 0 16.4617 0 18.3881C0 20.3144 1.32049 21.8905 2.93441 21.8905C3.63537 21.8858 4.31047 21.5938 4.832 21.0697C4.98502 20.9129 5.07612 20.6945 5.08529 20.4626C5.09447 20.2306 5.02095 20.0041 4.88091 19.8328C4.81293 19.746 4.73011 19.6753 4.63732 19.6248C4.54453 19.5744 4.44365 19.5453 4.34064 19.5391C4.23762 19.533 4.13456 19.55 4.03752 19.5892C3.94048 19.6284 3.85142 19.6889 3.77561 19.7672C3.54595 20.0033 3.24628 20.1359 2.93441 20.1393C2.18125 20.1393 1.56502 19.3512 1.56502 18.3881C1.56502 17.4249 2.18125 16.6368 2.93441 16.6368ZM16.0415 7.88061H11.3464C11.1389 7.88061 10.9398 7.78835 10.7931 7.62414C10.6463 7.45993 10.5639 7.23721 10.5639 7.00499V1.75126H1.95628V11.3831C1.95628 11.6153 1.87383 11.838 1.72708 12.0023C1.58033 12.1665 1.3813 12.2587 1.17377 12.2587C0.966231 12.2587 0.767197 12.1665 0.620447 12.0023C0.473698 11.838 0.391255 11.6153 0.391255 11.3831V1.75126C0.391255 1.2868 0.556141 0.841363 0.849639 0.512941C1.14314 0.184519 1.54121 1.41086e-05 1.95628 1.41086e-05H11.3464C11.5546 -0.00129928 11.7549 0.0891326 11.9039 0.251755L17.3717 6.38111C17.4468 6.46169 17.5064 6.55861 17.5467 6.6659C17.5871 6.77319 17.6074 6.88858 17.6065 7.00499V11.3831C17.6065 11.6153 17.524 11.838 17.3773 12.0023C17.2305 12.1665 17.0315 12.2587 16.824 12.2587C16.6164 12.2587 16.4174 12.1665 16.2707 12.0023C16.1239 11.838 16.0415 11.6153 16.0415 11.3831V7.88061ZM12.1289 6.12936H14.9362L12.1289 2.98807V6.12936ZM9.16515 17.4906C8.86193 17.403 8.32396 17.2388 8.21636 17.0965V17.0746C8.21636 16.7134 8.45111 16.5274 8.90106 16.5274C9.25058 16.5353 9.59047 16.657 9.8792 16.8776H9.86941C10.0114 17.0038 10.187 17.0731 10.3683 17.0746C10.5758 17.0746 10.7748 16.9824 10.9216 16.8182C11.0683 16.654 11.1508 16.4312 11.1508 16.199C11.1527 16.0708 11.1281 15.9438 11.0789 15.828C11.0297 15.7122 10.9572 15.6106 10.8671 15.5313C10.3027 15.0468 9.61241 14.7816 8.90106 14.7761C7.58057 14.7761 6.65134 15.7174 6.65134 17.0746C6.65134 18.4318 7.92292 18.9353 8.76412 19.1871C9.09668 19.2856 9.44881 19.3841 9.66401 19.5264C9.8792 19.6687 9.78138 19.6358 9.78138 19.7015C9.78138 19.7672 9.78138 20.2488 8.90106 20.2488C8.55153 20.2408 8.21165 20.1191 7.92292 19.8985H7.9327C7.79074 19.7724 7.61513 19.703 7.43385 19.7015C7.22632 19.7015 7.02728 19.7937 6.88053 19.958C6.73378 20.1222 6.65134 20.3449 6.65134 20.5771C6.64943 20.7053 6.67404 20.8323 6.72324 20.9481C6.77245 21.064 6.84492 21.1655 6.935 21.2448C7.49939 21.7293 8.1897 21.9945 8.90106 22C10.427 22 11.3464 21.1353 11.3464 19.7015C11.3464 18.2677 9.97701 17.7313 9.16515 17.4906Z" fill="#009FBE"/>
</svg>
